<svg width="21" height="25" viewBox="0 0 21 25" fill="none" xmlns="http://www.w3.org/2000/svg">
<path d="M17.5577 13.1969C17.5465 11.1895 18.4726 9.67437 20.3472 8.55854C19.2984 7.08718 17.7139 6.27766 15.6217 6.11904C13.6411 5.96588 11.4764 7.25127 10.6841 7.25127C9.84724 7.25127 7.928 6.17373 6.42163 6.17373C3.30845 6.22296 0 8.60777 0 13.4594C0 14.8925 0.2678 16.373 0.803401 17.9009C1.51753 19.9083 4.09511 24.831 6.78427 24.749C8.19022 24.7162 9.18332 23.7699 11.0133 23.7699C12.7875 23.7699 13.708 24.749 15.2758 24.749C17.9872 24.7107 20.3193 20.2364 21 18.2236C17.3624 16.5444 17.5577 13.3008 17.5577 13.1969ZM14.3998 4.21556C15.923 2.44337 15.7835 0.829793 15.7388 0.25C14.3943 0.326576 12.8377 1.14704 11.9506 2.15894C10.9742 3.24195 10.3996 4.58204 10.5223 6.09169C11.9785 6.20108 13.3063 5.46814 14.3998 4.21556Z" fill="white"/>
</svg>
